<?xml version="1.0" encoding="UTF-8" standalone="no"?>
<!-- Created with Inkscape (http://www.inkscape.org/) -->

<svg
   xmlns:dc="http://purl.org/dc/elements/1.1/"
   xmlns:cc="http://creativecommons.org/ns#"
   xmlns:rdf="http://www.w3.org/1999/02/22-rdf-syntax-ns#"
   xmlns:svg="http://www.w3.org/2000/svg"
   xmlns="http://www.w3.org/2000/svg"
   xmlns:xlink="http://www.w3.org/1999/xlink"
   xmlns:sodipodi="http://sodipodi.sourceforge.net/DTD/sodipodi-0.dtd"
   xmlns:inkscape="http://www.inkscape.org/namespaces/inkscape"
   id="svg2"
   version="1.1"
   inkscape:version="0.48.5 r10040"
   width="375"
   height="375"
   xml:space="preserve"
   sodipodi:docname="videograph.svg"><metadata
     id="metadata8"><rdf:RDF><cc:Work
         rdf:about=""><dc:format>image/svg+xml</dc:format><dc:type
           rdf:resource="http://purl.org/dc/dcmitype/StillImage" /><dc:title /></cc:Work></rdf:RDF></metadata><defs
     id="defs6"><clipPath
       clipPathUnits="userSpaceOnUse"
       id="clipPath38"><path
         d="m 39,119 50,0 0,-61 -50,0 0,61 z"
         id="path40"
         inkscape:connector-curvature="0" /></clipPath><clipPath
       clipPathUnits="userSpaceOnUse"
       id="clipPath44"><path
         d="M 51.625,120.871 C 41.891,120.871 34,106.516 34,88.809 34,71.328 41.691,57.109 51.25,56.746 l 0,-0.25 37,0 0,64.25 -35.031,0 c -0.524,0.086 -1.059,0.125 -1.594,0.125 z"
         id="path46"
         inkscape:connector-curvature="0" /></clipPath><clipPath
       clipPathUnits="userSpaceOnUse"
       id="clipPath52"><path
         d="M 100,88.883 C 100,72.246 86.512,58.758 69.875,58.758 53.238,58.746 39.75,72.234 39.75,88.879 c 0,16.629 13.488,30.117 30.125,30.117 16.637,0 30.125,-13.488 30.125,-30.117 l 0,0.004 z"
         clip-rule="evenodd"
         id="path54"
         inkscape:connector-curvature="0" /></clipPath><linearGradient
       x1="80.190002"
       y1="147.84"
       x2="72.683998"
       y2="80.697998"
       gradientUnits="userSpaceOnUse"
       gradientTransform="matrix(1.199,0,0,-1.199,-22.898,230.51)"
       spreadMethod="pad"
       id="linearGradient58"><stop
         style="stop-opacity:1;stop-color:#000000"
         offset="0"
         id="stop60" /><stop
         style="stop-opacity:1;stop-color:#333333"
         offset="1"
         id="stop62" /></linearGradient><clipPath
       clipPathUnits="userSpaceOnUse"
       id="clipPath70"><path
         d="m 57,102 26,0 0,-26 -26,0 0,26 z"
         id="path72"
         inkscape:connector-curvature="0" /></clipPath><clipPath
       clipPathUnits="userSpaceOnUse"
       id="clipPath76"><path
         d="M 51.625,120.871 C 41.891,120.871 34,106.516 34,88.809 34,71.328 41.691,57.109 51.25,56.746 l 0,-0.25 37,0 0,64.25 -35.031,0 c -0.524,0.086 -1.059,0.125 -1.594,0.125 z"
         id="path78"
         inkscape:connector-curvature="0" /></clipPath><clipPath
       clipPathUnits="userSpaceOnUse"
       id="clipPath86"><path
         d="m 215,111 40,0 0,-44 -40,0 0,44 z"
         id="path88"
         inkscape:connector-curvature="0" /></clipPath><clipPath
       clipPathUnits="userSpaceOnUse"
       id="clipPath92"><path
         d="m 252.125,120.871 c 9.734,0 17.625,-14.355 17.625,-32.062 0,-17.481 -7.691,-31.7 -17.25,-32.063 l 0,-0.25 -37,0 0,64.25 35.031,0 c 0.524,0.086 1.059,0.125 1.594,0.125 z"
         id="path94"
         inkscape:connector-curvature="0" /></clipPath><linearGradient
       x1="80.190002"
       y1="147.84"
       x2="72.683998"
       y2="80.697998"
       gradientUnits="userSpaceOnUse"
       gradientTransform="matrix(1.199,0,0,-1.199,141.102,230.51)"
       spreadMethod="pad"
       id="linearGradient106"><stop
         style="stop-opacity:1;stop-color:#000000"
         offset="0"
         id="stop108" /><stop
         style="stop-opacity:1;stop-color:#333333"
         offset="1"
         id="stop110" /></linearGradient><clipPath
       clipPathUnits="userSpaceOnUse"
       id="clipPath118"><path
         d="m 221,102 26,0 0,-26 -26,0 0,26 z"
         id="path120"
         inkscape:connector-curvature="0" /></clipPath><clipPath
       clipPathUnits="userSpaceOnUse"
       id="clipPath124"><path
         d="m 252.125,120.871 c 9.734,0 17.625,-14.355 17.625,-32.062 0,-17.481 -7.691,-31.7 -17.25,-32.063 l 0,-0.25 -37,0 0,64.25 35.031,0 c 0.524,0.086 1.059,0.125 1.594,0.125 z"
         id="path126"
         inkscape:connector-curvature="0" /></clipPath><clipPath
       clipPathUnits="userSpaceOnUse"
       id="clipPath136"><path
         d="m 33,55 56,0 0,67 -56,0 0,-67 z"
         id="path138"
         inkscape:connector-curvature="0" /></clipPath><mask
       maskUnits="userSpaceOnUse"
       x="0"
       y="0"
       width="1"
       height="1"
       id="mask140"><g
         id="g142"><g
           clip-path="url(#clipPath136)"
           id="g144"><path
             d="m 33,55 56,0 0,67 -56,0 0,-67 z"
             style="fill:#000000;fill-opacity:0.30196102;fill-rule:nonzero;stroke:none"
             id="path146"
             inkscape:connector-curvature="0" /></g></g></mask><clipPath
       clipPathUnits="userSpaceOnUse"
       id="clipPath152"><path
         d="m 33,55 56,0 0,67 -56,0 0,-67 z"
         id="path154"
         inkscape:connector-curvature="0" /></clipPath><clipPath
       clipPathUnits="userSpaceOnUse"
       id="clipPath156"><path
         d="m 33,55 56,0 0,67 -56,0 0,-67 z"
         id="path158"
         inkscape:connector-curvature="0" /></clipPath><clipPath
       clipPathUnits="userSpaceOnUse"
       id="clipPath180"><path
         d="m 214,55 57,0 0,67 -57,0 0,-67 z"
         id="path182"
         inkscape:connector-curvature="0" /></clipPath><mask
       maskUnits="userSpaceOnUse"
       x="0"
       y="0"
       width="1"
       height="1"
       id="mask184"><g
         id="g186"><g
           clip-path="url(#clipPath180)"
           id="g188"><path
             d="m 214,55 57,0 0,67 -57,0 0,-67 z"
             style="fill:#000000;fill-opacity:0.30196102;fill-rule:nonzero;stroke:none"
             id="path190"
             inkscape:connector-curvature="0" /></g></g></mask><clipPath
       clipPathUnits="userSpaceOnUse"
       id="clipPath196"><path
         d="m 214,55 57,0 0,67 -57,0 0,-67 z"
         id="path198"
         inkscape:connector-curvature="0" /></clipPath><clipPath
       clipPathUnits="userSpaceOnUse"
       id="clipPath200"><path
         d="m 214,55 57,0 0,67 -57,0 0,-67 z"
         id="path202"
         inkscape:connector-curvature="0" /></clipPath><linearGradient
       inkscape:collect="always"
       xlink:href="#linearGradient58"
       id="linearGradient3203"
       gradientUnits="userSpaceOnUse"
       gradientTransform="matrix(1.199,0,0,-1.199,-22.898,230.51)"
       spreadMethod="pad"
       x1="80.190002"
       y1="147.84"
       x2="72.683998"
       y2="80.697998" /><linearGradient
       inkscape:collect="always"
       xlink:href="#linearGradient106"
       id="linearGradient3221"
       gradientUnits="userSpaceOnUse"
       gradientTransform="matrix(1.199,0,0,-1.199,141.102,230.51)"
       spreadMethod="pad"
       x1="80.190002"
       y1="147.84"
       x2="72.683998"
       y2="80.697998" /></defs><sodipodi:namedview
     pagecolor="#ffffff"
     bordercolor="#666666"
     borderopacity="1"
     objecttolerance="10"
     gridtolerance="10"
     guidetolerance="10"
     inkscape:pageopacity="0"
     inkscape:pageshadow="2"
     inkscape:window-width="1920"
     inkscape:window-height="1143"
     id="namedview4"
     showgrid="false"
     inkscape:zoom="1.4142136"
     inkscape:cx="265.73455"
     inkscape:cy="311.82742"
     inkscape:window-x="0"
     inkscape:window-y="27"
     inkscape:window-maximized="1"
     inkscape:current-layer="g10"
     fit-margin-top="62.5"
     fit-margin-bottom="62.5" /><g
     id="g10"
     inkscape:groupmode="layer"
     inkscape:label="video-tape"
     transform="matrix(1.25,0,0,-1.25,0,375)"><path
       inkscape:connector-curvature="0"
       id="path14"
       style="fill:#000000;fill-opacity:1;fill-rule:evenodd;stroke:#666666;stroke-width:1;stroke-linecap:butt;stroke-linejoin:miter;stroke-miterlimit:4;stroke-opacity:1;stroke-dasharray:none"
       d="m 20,220 260,0 0,-150 -260,0 0,150 z" /><path
       inkscape:connector-curvature="0"
       id="path16"
       style="fill:#000000;fill-opacity:1;fill-rule:evenodd;stroke:#666666;stroke-width:1;stroke-linecap:butt;stroke-linejoin:miter;stroke-miterlimit:4;stroke-opacity:1;stroke-dasharray:none"
       d="m 20,220 260,0 0,-25 -260,0 0,25 z" /><path
       id="path22"
       style="fill:none;stroke:#888888;stroke-width:1;stroke-linecap:butt;stroke-linejoin:miter;stroke-miterlimit:4;stroke-opacity:1;stroke-dasharray:none"
       d="m 20.4993,208 258.99948,0 m -258.99948,-4 258.99948,0 m -258.99948,-4 258.99948,0"
       inkscape:connector-curvature="0"
       sodipodi:nodetypes="cccccc" /><path
       inkscape:connector-curvature="0"
       id="path24"
       style="fill:#666666;fill-opacity:1;fill-rule:nonzero;stroke:none"
       d="M 141.969,213.059 147,216 l 5,-3 -10.031,0.066 0,-0.007 z" /><path
       inkscape:connector-curvature="0"
       id="path26"
       style="fill:#888888;fill-opacity:1;fill-rule:nonzero;stroke:none"
       d="m 147,216 -5.031,-2.938 0.621,0 4.41,2.563 4.379,-2.625 0.621,0 -5,3 z" /><path
       inkscape:connector-curvature="0"
       id="path30"
       style="fill:#eeeeee;fill-opacity:1;fill-rule:evenodd;stroke:#000000;stroke-width:1;stroke-linecap:butt;stroke-linejoin:miter;stroke-miterlimit:4;stroke-opacity:1;stroke-dasharray:none"
       d="M 51.625,170.871 C 41.891,170.871 34,156.516 34,138.809 c 0,-17.481 7.691,-31.7 17.25,-32.063 l 0,-0.25 37,0 0,64.25 -35.031,0 c -0.524,0.086 -1.059,0.125 -1.594,0.125 z" /><path
       inkscape:connector-curvature="0"
       id="path32"
       style="fill:#eeeeee;fill-opacity:1;fill-rule:evenodd;stroke:#000000;stroke-width:1;stroke-linecap:butt;stroke-linejoin:miter;stroke-miterlimit:4;stroke-opacity:1;stroke-dasharray:none"
       d="m 252.121,170.871 c 9.734,0 17.625,-14.355 17.625,-32.062 0,-17.481 -7.691,-31.7 -17.25,-32.063 l 0,-0.25 -37,0 0,64.25 35.031,0 c 0.52,0.086 1.059,0.125 1.594,0.125 z" /><g
       clip-path="url(#clipPath38)"
       id="g36"
       transform="translate(0,50)"><g
         clip-path="url(#clipPath44)"
         id="g42"><g
           id="g48"><g
             clip-path="url(#clipPath52)"
             id="g50"><g
               id="g56"><path
                 inkscape:connector-curvature="0"
                 id="path64"
                 style="fill:url(#linearGradient3203);fill-rule:evenodd;stroke:none"
                 d="M 100,88.883 C 100,72.246 86.512,58.758 69.875,58.758 53.238,58.746 39.75,72.234 39.75,88.879 c 0,16.629 13.488,30.117 30.125,30.117 16.637,0 30.125,-13.488 30.125,-30.117 l 0,0.004 z" /></g></g></g></g></g><g
       id="g74"
       clip-path="url(#clipPath76)"
       transform="translate(0,50)"><path
         d="M 82.5,88.875 C 82.5,81.902 76.848,76.25 69.875,76.25 62.902,76.246 57.25,81.898 57.25,88.875 c 0,6.969 5.652,12.621 12.625,12.621 6.973,0 12.625,-5.652 12.625,-12.621 z"
         style="fill:#eeeeee;fill-opacity:1;fill-rule:evenodd;stroke:none"
         id="path80"
         inkscape:connector-curvature="0" /></g><g
       clip-path="url(#clipPath86)"
       id="g84"
       transform="translate(0,50)"><g
         clip-path="url(#clipPath92)"
         id="g90"><g
           id="g96"><g
             id="g98"><g
               id="g104"><path
                 inkscape:connector-curvature="0"
                 id="path112"
                 style="fill:url(#linearGradient3221);fill-rule:evenodd;stroke:none"
                 d="m 255,88.883 c 0,-11.664 -9.457,-21.125 -21.125,-21.125 -11.668,0 -21.125,9.461 -21.125,21.125 0,11.668 9.457,21.125 21.125,21.125 11.668,0 21.125,-9.457 21.125,-21.125 z" /></g></g></g></g></g><g
       id="g122"
       clip-path="url(#clipPath124)"
       transform="translate(0,50)"><path
         d="m 246.5,88.875 c 0,-6.973 -5.652,-12.625 -12.625,-12.625 -6.973,-0.004 -12.625,5.648 -12.625,12.625 0,6.969 5.652,12.621 12.625,12.621 6.973,0 12.625,-5.652 12.625,-12.621 z"
         style="fill:#eeeeee;fill-opacity:1;fill-rule:evenodd;stroke:none"
         id="path128"
         inkscape:connector-curvature="0" /></g><g
       id="g134"
       transform="translate(0,50)" /><g
       id="g148"
       mask="url(#mask140)"
       transform="translate(0,50)"><g
         id="g150" /></g><g
       id="g178"
       transform="translate(0,50)" /><g
       id="g192"
       mask="url(#mask184)"
       transform="translate(0,50)"><g
         id="g194" /><g
         id="g204"><g
           clip-path="url(#clipPath196)"
           id="g206"><g
             id="g208"><g
               id="g210" /><g
               id="g212"><g
                 clip-path="url(#clipPath200)"
                 id="g214"><g
                   id="g216" /></g></g></g></g></g></g><path
       inkscape:connector-curvature="0"
       id="path220"
       style="fill:#333333;fill-opacity:1;fill-rule:evenodd;stroke:#000000;stroke-width:1;stroke-linecap:butt;stroke-linejoin:miter;stroke-miterlimit:4;stroke-opacity:1;stroke-dasharray:none"
       d="m 94.75,170.75 114,0 0,-14.5 -114,0 0,14.5 z" /><path
       style="fill:#eeeeee;fill-opacity:1;fill-rule:evenodd;stroke:#000000;stroke-width:1.07765412;stroke-linecap:butt;stroke-linejoin:miter;stroke-miterlimit:4;stroke-opacity:1;stroke-dasharray:none"
       d="M 118.4375 179.6875 L 118.4375 222.5 L 260.9375 222.5 L 260.9375 179.6875 L 118.4375 179.6875 z M 125.3125 189.375 L 255 189.375 L 125.3125 189.375 z M 125.3125 194.375 L 255 194.375 L 125.3125 194.375 z M 125.3125 199.375 L 255 199.375 L 125.3125 199.375 z M 125.3125 204.375 L 255 204.375 L 125.3125 204.375 z M 125.3125 209.375 L 255 209.375 L 125.3125 209.375 z M 125.3125 214.375 L 255 214.375 L 125.3125 214.375 z "
       transform="matrix(0.8,0,0,-0.8,0,300)"
       id="path28" /><path
       inkscape:connector-curvature="0"
       id="path222"
       style="fill:#333333;fill-opacity:1;fill-rule:evenodd;stroke:#000000;stroke-width:1;stroke-linecap:butt;stroke-linejoin:miter;stroke-miterlimit:4;stroke-opacity:1;stroke-dasharray:none"
       d="m 94.75,122 114,0 0,-14.5 -114,0 0,14.5 z" /><path
       d="m 84.353275,93.820695 c 0.02969,0.110924 0.06727,0.241088 0.112777,0.390479 0.04356,0.183466 0.096,0.36909 0.157309,0.556904 0.07904,0.192102 0.151153,0.34794 0.216322,0.467547 0.06324,0.153663 0.139208,0.241311 0.227912,0.262924 0.01774,0.0043 0.02759,-0.0107 0.0295,-0.04467 -2e-6,-2.2e-5 0.01774,0.0043 0.05322,0.01296 l 0.05322,0.01296 c 0.393794,-0.284474 0.699673,-0.763198 0.917638,-1.436171 0.233768,-0.634593 0.428981,-1.382274 0.585641,-2.243045 0.174392,-0.856486 0.326041,-1.787641 0.454944,-2.79347 0.126966,-0.971749 0.280541,-1.937009 0.460738,-2.895779 0.178255,-0.924688 0.391029,-1.823677 0.638323,-2.696967 0.265025,-0.86899 0.612966,-1.614065 1.043821,-2.235231 0.208167,1.087887 0.4094,2.139517 0.603701,3.154893 0.210097,1.053781 0.437942,2.11189 0.683534,3.174329 0.263318,1.066733 0.551324,2.174061 0.864018,3.321985 0.330417,1.152212 0.700365,2.400495 1.109851,3.744853 0.441933,0.453302 0.794029,0.746456 1.056279,0.879463 0.262244,0.132961 0.443511,0.107943 0.543811,-0.07507 0.09831,-0.148944 0.104877,-0.423943 0.01969,-0.824976 -0.08521,-0.401073 -0.25525,-0.891926 -0.51012,-1.472563 -0.163899,-0.281931 -0.363634,-0.883735 -0.599195,-1.805413 -0.217838,-0.917389 -0.462452,-1.996867 -0.733854,-3.238437 -0.253679,-1.237279 -0.531063,-2.532176 -0.832151,-3.884699 -0.301107,-1.352542 -0.599127,-2.600603 -0.894064,-3.744188 -0.296883,-1.109491 -0.585674,-2.04414 -0.866375,-2.803949 -0.262972,-0.755494 -0.510734,-1.144258 -0.743287,-1.166294 -0.248376,-0.06046 -0.517022,0.237169 -0.805941,0.89289 -0.27312,0.694141 -0.557823,1.592908 -0.854109,2.696302 -0.296294,1.103383 -0.589508,2.311243 -0.87964,3.623582 -0.292072,1.346425 -0.574304,2.677967 -0.846698,3.994628 -0.254657,1.320957 -0.493683,2.524719 -0.717078,3.611294 -0.207584,1.124968 -0.390854,1.979277 -0.5498,2.562935"
       style="font-size:26.85062599000000105px;font-style:italic;font-variant:normal;font-weight:bold;font-stretch:normal;line-height:125%;letter-spacing:0px;word-spacing:0px;writing-mode:lr-tb;color:#000000;fill:#ffffff;fill-opacity:1;fill-rule:nonzero;stroke:none;stroke-width:1px;marker:none;visibility:visible;font-family:Indie Flower;-inkscape-font-specification:Indie Flower Bold Italic"
       id="path3220"
       inkscape:connector-curvature="0" /><path
       d="m 96.383781,87.889424 c 0.01004,0.0701 0.02214,0.200762 0.03642,0.391976 0.01428,0.191197 0.03642,0.391968 0.06643,0.602317 0.03001,0.210328 0.05215,0.411099 0.06643,0.602316 0.03194,0.193337 0.04414,0.324004 0.03642,0.391978 -0.0067,0.533149 0.185175,0.823403 0.575469,0.870749 0.177399,0.0215 0.324154,-0.0038 0.440258,-0.07579 0.116097,-0.07206 0.219289,-0.188729 0.309559,-0.350019 C 97.766821,89.4093 97.72242,88.534059 97.78157,87.69722 c 0.05718,-0.819869 0.13222,-1.637563 0.224918,-2.45311 0.09077,-0.798569 0.173368,-1.606733 0.248611,-2.4244 0.07494,-0.81771 0.06507,-1.680152 -0.02964,-2.587331 -0.02614,-0.24432 -0.123333,-0.497256 -0.291443,-0.758792 -0.16811,-0.261537 -0.402969,-0.410594 -0.704555,-0.44717 -0.230626,-0.02797 -0.411538,0.139564 -0.542724,0.502602 -0.133117,0.380029 -0.232516,0.858883 -0.298178,1.436568 -0.06759,0.594672 -0.115356,1.252038 -0.143188,1.972113 -0.02793,0.720054 -0.03417,1.408293 -0.01886,2.064702 0.03113,0.67554 0.06207,1.273552 0.09284,1.794038 0.02883,0.537461 0.05036,0.901795 0.06461,1.093006 m -0.753697,6.393774 c 0.03,0.210322 0.10426,0.348515 0.222653,0.414563 0.134195,0.08516 0.298871,0.13958 0.494016,0.163263 0.12226,0.03203 0.281738,-0.02613 0.478466,-0.174509 0.19478,-0.131418 0.348116,-0.293683 0.459998,-0.486798 0.111876,-0.193147 0.168599,-0.375741 0.17017,-0.547785 -0.01234,-0.20821 -0.158453,-0.346504 -0.438438,-0.414895 l -0.133059,-0.01614 c -0.266114,-0.03229 -0.489803,-0.04219 -0.671064,-0.02971 -0.163529,0.01461 -0.293511,0.05051 -0.389936,0.107734 -0.08059,0.07634 -0.138492,0.189889 -0.173614,0.340669 -0.03514,0.150747 -0.04152,0.365284 -0.01924,0.6436"
       style="font-size:26.85062599000000105px;font-style:italic;font-variant:normal;font-weight:bold;font-stretch:normal;line-height:125%;letter-spacing:0px;word-spacing:0px;writing-mode:lr-tb;color:#000000;fill:#ffffff;fill-opacity:1;fill-rule:nonzero;stroke:none;stroke-width:1px;marker:none;visibility:visible;font-family:Indie Flower;-inkscape-font-specification:Indie Flower Bold Italic"
       id="path3222"
       inkscape:connector-curvature="0" /><path
       d="m 99.708936,85.218041 c 0.07047,0.645863 0.216912,1.335394 0.439314,2.068595 0.24016,0.735338 0.56594,1.429394 0.97734,2.082168 0.42914,0.654907 0.9418,1.20799 1.53798,1.659253 0.59424,0.468228 1.2994,0.751835 2.11547,0.850817 0.42577,0.05163 0.84057,0.04164 1.24439,-0.02994 0.42154,-0.06946 0.84889,-0.189885 1.28204,-0.361266 0.43313,-0.171406 0.87997,-0.384201 1.34052,-0.638384 0.45859,-0.237218 0.94767,-0.505176 1.46723,-0.803879 0.13563,0.705435 0.17176,1.416039 0.1084,2.131811 -0.0476,0.734884 -0.13756,1.447422 -0.26992,2.137604 -0.13236,0.690155 -0.26886,1.336759 -0.40934,1.939835 -0.14239,0.620036 -0.23281,1.177492 -0.27106,1.672393 -0.0382,0.494866 -0.0136,0.911246 0.0738,1.249149 0.10522,0.340014 0.33928,0.5751 0.70219,0.705256 0.44665,-0.290349 0.81215,-0.736931 1.0965,-1.33975 0.30015,-0.583714 0.53206,-1.279034 0.69572,-2.085964 0.16364,-0.806965 0.28086,-1.679831 0.35156,-2.618614 0.0865,-0.919664 0.13063,-1.861684 0.13237,-2.826057 0.0194,-0.962245 0.0182,-1.90115 -0.004,-2.816707 -0.0218,-0.915576 -0.0337,-1.761028 -0.0354,-2.53636 -0.004,-0.758353 -0.001,-1.412608 0.007,-1.962759 0.0243,-0.531021 0.0846,-0.902662 0.18064,-1.114937 -0.0224,-0.278314 -0.14495,-0.465427 -0.36784,-0.561357 -0.20518,-0.09378 -0.4142,-0.153584 -0.62707,-0.179399 -0.17743,-0.02152 -0.32611,0.02074 -0.44606,0.126764 -0.10415,0.125168 -0.18363,0.270552 -0.23841,0.436159 -0.0548,0.165597 -0.10267,0.34927 -0.1436,0.551006 -0.0429,0.218723 -0.0917,0.410891 -0.1465,0.576494 -0.0568,0.182586 -0.12732,0.329053 -0.21181,0.439384 -0.0667,0.112483 -0.17109,0.16011 -0.313,0.142903 -0.0355,-0.0043 -0.0877,-0.01921 -0.15677,-0.04485 -0.0533,-0.0065 -0.0789,-0.01814 -0.077,-0.03517 -0.37557,-0.493399 -0.81419,-0.985828 -1.31586,-1.477289 -0.48588,-0.472326 -1.02093,-0.90755 -1.60514,-1.305675 -0.56843,-0.378986 -1.16135,-0.700655 -1.77877,-0.965007 -0.59968,-0.262201 -1.20111,-0.429878 -1.80429,-0.50303 -0.67414,-0.08176 -1.24825,0.06393 -1.7223,0.437059 -0.45632,0.375281 -0.83359,0.846273 -1.13181,1.41298 -0.28048,0.568853 -0.476113,1.182448 -0.586911,1.840787 -0.09308,0.660478 -0.123219,1.242469 -0.09055,1.745959 m 1.622188,-0.268337 c 0.12271,-0.605221 0.22789,-1.135049 0.31556,-1.589484 0.10533,-0.452303 0.24542,-0.814261 0.42018,-1.085887 0.17475,-0.271633 0.395,-0.468846 0.66076,-0.591637 0.28156,-0.103655 0.65296,-0.127512 1.11422,-0.07157 0.56769,0.06885 1.18012,0.298143 1.83724,0.687889 0.67292,0.40888 1.30959,0.899491 1.91,1.471832 0.60038,0.572331 1.09838,1.175311 1.49398,1.808941 0.4114,0.652759 0.6483,1.258523 0.71068,1.817293 -0.006,0.05096 3.8e-4,0.155063 0.0185,0.312294 0.018,0.157205 0.0331,0.262385 0.0451,0.315519 -0.86328,0.79099 -1.67097,1.330358 -2.42308,1.618102 -0.75405,0.304714 -1.44153,0.419425 -2.06245,0.344131 -0.62285,-0.05832 -1.17607,-0.254602 -1.65964,-0.588837 -0.48359,-0.334255 -0.90428,-0.746999 -1.26211,-1.238234 -0.34008,-0.4891 -0.60341,-1.020558 -0.78998,-1.594374 -0.18656,-0.57383 -0.2962,-1.112486 -0.32889,-1.615967"
       style="font-size:26.85062599000000105px;font-style:italic;font-variant:normal;font-weight:bold;font-stretch:normal;line-height:125%;letter-spacing:0px;word-spacing:0px;writing-mode:lr-tb;color:#000000;fill:#ffffff;fill-opacity:1;fill-rule:nonzero;stroke:none;stroke-width:1px;marker:none;visibility:visible;font-family:Indie Flower;-inkscape-font-specification:Indie Flower Bold Italic"
       id="path3224"
       inkscape:connector-curvature="0" /><path
       d="m 114.14636,86.428303 c 0.077,0.905024 0.29185,1.783714 0.6446,2.636075 0.35081,0.86933 0.81079,1.648561 1.37994,2.337694 0.58687,0.691258 1.27694,1.265857 2.0702,1.723798 0.79131,0.474902 1.68371,0.772604 2.67719,0.893103 0.57542,8.7e-4 1.07179,-0.09395 1.48913,-0.284474 0.41733,-0.19055 0.74385,-0.452386 0.97956,-0.78551 0.23376,-0.316162 0.39446,-0.701457 0.48209,-1.15589 0.068,-0.439616 0.0777,-0.920733 0.0292,-1.443355 -0.0547,-0.626736 -0.29351,-1.21551 -0.71649,-1.766322 -0.423,-0.55083 -0.93451,-1.034875 -1.53454,-1.452136 -0.60198,-0.400287 -1.23828,-0.735828 -1.90892,-1.00663 -0.67258,-0.253822 -1.29271,-0.415156 -1.8604,-0.483998 -0.2129,-0.02582 -0.43466,-0.05272 -0.66529,-0.08068 -0.21288,-0.02582 -0.40302,-0.01443 -0.57041,0.03417 -0.1674,0.0486 -0.30316,0.135477 -0.40731,0.260651 -0.0864,0.127316 -0.1185,0.330121 -0.0961,0.608441 0.008,0.0871 0.027,0.158287 0.0567,0.213574 0.0278,0.07227 0.10275,0.124417 0.22501,0.156476 0.13807,0.05118 0.33225,0.08335 0.58255,0.09649 0.23449,-0.006 0.56848,-0.01719 1.00198,-0.03351 0.24837,0.03011 0.61223,0.151756 1.0916,0.364921 0.47741,0.230141 0.96775,0.50492 1.47101,0.824334 0.52098,0.32155 0.97601,0.669557 1.3651,1.044027 0.38715,0.391442 0.59786,0.752882 0.63214,1.084321 0.0323,0.348407 0.003,0.680797 -0.0864,0.997181 -0.0741,0.335495 -0.21436,0.619926 -0.42072,0.853285 -0.20638,0.233332 -0.46018,0.40925 -0.76141,0.527755 -0.30124,0.118478 -0.64507,0.137066 -1.0315,0.05576 -0.63287,-0.128435 -1.21771,-0.363004 -1.7545,-0.703691 -0.51906,-0.338561 -0.97524,-0.755607 -1.36854,-1.251142 -0.39525,-0.478568 -0.7226,-1.000565 -0.98206,-1.565994 -0.24172,-0.563297 -0.38298,-1.140237 -0.42375,-1.730821 -0.0562,-0.454676 -0.0947,-0.90719 -0.11547,-1.357548 -0.0207,-0.450367 0.002,-0.886867 0.0679,-1.309474 0.0837,-0.420477 0.23655,-0.815337 0.45837,-1.184604 0.22183,-0.369274 0.563,-0.681007 1.02355,-0.935199 0.4586,-0.237209 1.04543,-0.415801 1.7605,-0.535776 0.73086,-0.100839 1.64915,-0.110046 2.75487,-0.02762 l 4.78182,0.889973 c -0.31234,-0.416828 -0.70335,-0.774298 -1.17304,-1.072408 -0.45197,-0.295964 -0.9265,-0.551599 -1.42359,-0.766908 -0.49903,-0.198321 -0.99306,-0.361585 -1.48206,-0.489788 -0.48902,-0.128203 -0.94642,-0.218129 -1.37218,-0.269764 -1.02897,-0.12479 -1.97869,-0.07633 -2.84919,0.145368 -0.87051,0.221701 -1.63132,0.585891 -2.28241,1.092577 -0.63529,0.525823 -1.11557,1.191023 -1.44083,1.9956 -0.30945,0.823712 -0.40873,1.776266 -0.29786,2.857662"
       style="font-size:26.85062599000000105px;font-style:italic;font-variant:normal;font-weight:bold;font-stretch:normal;line-height:125%;letter-spacing:0px;word-spacing:0px;writing-mode:lr-tb;color:#000000;fill:#ffffff;fill-opacity:1;fill-rule:nonzero;stroke:none;stroke-width:1px;marker:none;visibility:visible;font-family:Indie Flower;-inkscape-font-specification:Indie Flower Bold Italic"
       id="path3226"
       inkscape:connector-curvature="0" /><path
       d="m 128.03641,86.459255 c 0.0889,0.958149 0.37765,1.819959 0.86617,2.585434 0.48852,0.76546 1.09603,1.433396 1.82255,2.003813 0.74425,0.572548 1.55621,1.024131 2.43588,1.354749 0.89548,0.349738 1.77786,0.577325 2.64715,0.682762 0.46125,0.05593 0.87894,0.02045 1.25307,-0.106405 0.38993,-0.107746 0.7521,-0.287746 1.08654,-0.54 0.33248,-0.235287 0.62642,-0.526911 0.8818,-0.874878 0.25343,-0.330996 0.46445,-0.684353 0.63306,-1.060068 0.1686,-0.375734 0.28494,-0.766409 0.34904,-1.172027 0.0622,-0.388638 0.0787,-0.77419 0.0505,-1.156558 -0.0789,-0.888047 -0.32813,-1.702002 -0.7476,-2.441869 -0.41951,-0.739874 -0.95702,-1.390708 -1.61256,-1.952507 -0.63975,-0.542661 -1.35317,-0.990906 -2.14027,-1.344734 -0.78904,-0.336842 -1.58272,-0.553671 -2.38104,-0.650489 -0.81608,-0.09897 -1.55696,-0.06825 -2.22265,0.09216 -0.64989,0.179556 -1.21284,0.464395 -1.68882,0.854518 -0.45825,0.392271 -0.8039,0.901548 -1.03695,1.527834 -0.21725,0.64542 -0.28254,1.378172 -0.19595,2.198249 m 1.30737,0.365252 c -0.0466,-0.539626 0.0113,-1.049346 0.17381,-1.529162 0.16051,-0.462834 0.40297,-0.855439 0.72738,-1.177816 0.32441,-0.322383 0.72092,-0.567118 1.18954,-0.734206 0.48443,-0.147952 1.0105,-0.187501 1.5782,-0.118649 0.30545,0.0026 0.68205,0.09129 1.1298,0.266204 0.44579,0.191863 0.89467,0.435775 1.34665,0.73174 0.46775,0.315099 0.91295,0.670527 1.3356,1.066286 0.43843,0.414891 0.81188,0.847742 1.12035,1.298555 0.30652,0.467792 0.50565,0.931176 0.59737,1.390153 0.10751,0.478105 0.0741,0.93051 -0.10035,1.35721 -0.17634,0.443679 -0.53604,0.839291 -1.07913,1.186833 -0.54502,0.364515 -1.31681,0.667088 -2.31535,0.90772 -0.58544,-0.07101 -1.20558,-0.232339 -1.86041,-0.483999 -0.63903,-0.232533 -1.23291,-0.545706 -1.78165,-0.93952 -0.53101,-0.39168 -0.99028,-0.860776 -1.37778,-1.407287 -0.38751,-0.546525 -0.61553,-1.151212 -0.68407,-1.814066"
       style="font-size:26.85062599000000105px;font-style:italic;font-variant:normal;font-weight:bold;font-stretch:normal;line-height:125%;letter-spacing:0px;word-spacing:0px;writing-mode:lr-tb;color:#000000;fill:#ffffff;fill-opacity:1;fill-rule:nonzero;stroke:none;stroke-width:1px;marker:none;visibility:visible;font-family:Indie Flower;-inkscape-font-specification:Indie Flower Bold Italic"
       id="path3228"
       inkscape:connector-curvature="0" /><path
       d="m 146.30404,76.221087 c -0.0448,0.235722 -0.0157,0.454568 0.0872,0.656515 0.10295,0.201965 0.22749,0.372093 0.37363,0.510385 0.14615,0.138305 0.306,0.235203 0.47955,0.290694 0.17354,0.0555 0.3174,0.05573 0.43156,6.67e-4 0.0984,-0.07419 0.15913,-0.213232 0.1823,-0.417127 0.005,-0.206036 -0.0869,-0.501439 -0.27695,-0.886221 -0.0284,-0.382391 0.1106,-0.735863 0.41728,-1.0604 0.28893,-0.326674 0.68043,-0.606467 1.17451,-0.839378 0.4941,-0.232892 1.03851,-0.433854 1.63325,-0.602884 0.59474,-0.169011 1.17673,-0.305127 1.74601,-0.408346 0.56927,-0.103198 1.08049,-0.170387 1.53367,-0.201561 0.41768,-0.03546 0.73297,-0.04028 0.94586,-0.01448 0.44352,0.0538 0.83013,0.212648 1.15984,0.476547 0.3297,0.26392 0.62507,0.592565 0.88611,0.985936 0.26103,0.39339 0.47192,0.832364 0.63267,1.316923 0.18041,0.469735 0.32438,0.943655 0.43191,1.421762 0.12719,0.463279 0.21986,0.913753 0.27804,1.351425 0.0581,0.437681 0.0974,0.804168 0.11783,1.099459 0.0201,0.140239 0.0354,0.400477 0.0461,0.780719 0.0126,0.363258 0.01,0.784908 -0.009,1.264952 -8.9e-4,0.482191 -0.0126,0.9803 -0.035,1.494328 -0.0225,0.514017 -0.0588,0.99191 -0.10904,1.433668 -0.0502,0.441757 -0.10853,0.796408 -0.17485,1.063965 -0.0664,0.267542 -0.15279,0.394866 -0.25923,0.381958 -0.17742,-0.02152 -0.39338,-0.09938 -0.64789,-0.233598 -0.25453,-0.134219 -0.51697,-0.278008 -0.78729,-0.431366 -0.27034,-0.153361 -0.54163,-0.298225 -0.81389,-0.434592 -0.27227,-0.13637 -0.53258,-0.219614 -0.78095,-0.249736 -0.49674,-0.06024 -0.97846,-0.01531 -1.44514,0.134786 -0.44895,0.152251 -0.8337,0.372576 -1.15424,0.660977 -0.32055,0.288395 -0.56802,0.645943 -0.74241,1.072644 -0.15666,0.428845 -0.21768,0.886517 -0.18302,1.373022 0.0747,0.766949 0.30711,1.570258 0.69728,2.409927 0.39016,0.839657 0.88562,1.62319 1.48637,2.350602 0.60076,0.727396 1.286,1.344472 2.05572,1.851229 0.76972,0.506737 1.57148,0.810671 2.40529,0.911804 0.62249,-0.09677 1.10156,-0.434839 1.4372,-1.01422 0.35143,-0.560261 0.5951,-1.279991 0.73102,-2.159195 0.13594,-0.879216 0.2033,-1.870091 0.20298,-2.972519 -0.003,-1.085479 -0.0376,-2.200743 -0.10531,-3.345792 -0.0677,-1.145054 -0.14715,-2.265697 -0.23836,-3.361929 -0.0716,-1.11107 -0.0926,-2.112664 -0.0631,-3.004791 -0.0443,-0.401538 -0.11633,-0.875349 -0.21612,-1.421429 -0.0801,-0.560908 -0.20364,-1.135697 -0.37053,-1.724366 -0.16691,-0.588656 -0.37026,-1.173127 -0.61003,-1.753412 -0.23787,-0.59726 -0.52781,-1.131945 -0.86981,-1.604057 -0.3401,-0.48908 -0.74402,-0.891178 -1.21179,-1.206292 -0.4481,-0.329931 -0.95599,-0.529326 -1.52369,-0.598188 -0.46126,-0.05593 -1.01702,-0.07165 -1.66726,-0.04718 -0.63251,0.02665 -1.28065,0.111686 -1.94442,0.255097 -0.68151,0.141285 -1.35107,0.335681 -2.00869,0.583187 -0.67536,0.24538 -1.2678,0.552478 -1.77734,0.921295 -0.50761,0.351846 -0.90665,0.777137 -1.19715,1.275868 -0.28857,0.481759 -0.40552,1.035998 -0.35086,1.662715 m 6.71265,12.621771 c -0.0362,-0.31444 -0.0201,-0.613931 0.0482,-0.898461 0.0841,-0.265405 0.20082,-0.501009 0.35012,-0.706823 0.16702,-0.20367 0.38245,-0.358406 0.64627,-0.464207 0.26189,-0.08881 0.56136,-0.112783 0.89844,-0.0719 0.90477,0.109726 1.60395,0.36677 2.09755,0.771133 0.51133,0.406508 0.87995,0.881836 1.10587,1.425986 0.22591,0.544141 0.36813,1.112585 0.42666,1.705335 0.0388,0.607577 0.0667,1.153541 0.0836,1.637894 0.0261,0.244312 0.0258,0.485418 -0.001,0.723296 -0.009,0.240015 -0.0613,0.457632 -0.15519,0.65295 -0.0763,0.197431 -0.20119,0.345928 -0.37436,0.445509 -0.1732,0.09956 -0.40171,0.132134 -0.68556,0.09772 -0.58544,-0.07101 -1.14367,-0.302345 -1.67467,-0.694008 -0.53294,-0.37469 -0.99413,-0.826796 -1.38357,-1.356315 -0.39137,-0.512544 -0.71486,-1.068523 -0.97046,-1.667936 -0.23979,-0.580285 -0.377,-1.113673 -0.41163,-1.600164"
       style="font-size:26.85062599000000105px;font-style:italic;font-variant:normal;font-weight:bold;font-stretch:normal;line-height:125%;letter-spacing:0px;word-spacing:0px;writing-mode:lr-tb;color:#000000;fill:#dba619;fill-opacity:1;fill-rule:nonzero;stroke:none;stroke-width:1px;marker:none;visibility:visible;font-family:Indie Flower;-inkscape-font-specification:Indie Flower Bold Italic"
       id="path3230"
       inkscape:connector-curvature="0" /><path
       d="m 163.91145,85.911592 c -0.32561,0.649506 -0.5959,1.36601 -0.81086,2.149513 -0.1972,0.785651 -0.3599,1.584102 -0.48808,2.395356 -0.11046,0.813394 -0.19164,1.604507 -0.24282,2.373428 -0.0357,0.788014 -0.0359,1.502814 -9.3e-4,2.144388 0.004,0.12108 -0.001,0.249581 -0.0169,0.385516 3.8e-4,0.155061 0.01,0.311202 0.0277,0.468436 0.0358,0.159355 0.0815,0.311311 0.13703,0.455853 0.0555,0.144519 0.13957,0.27529 0.25217,0.392307 l 0.0532,0.0064 c 0.0178,0.0021 0.0266,0.0032 0.0266,0.0032 0.0158,0.01913 0.0326,0.02978 0.0503,0.03193 0.0178,0.0021 0.0187,-0.0064 0.003,-0.02549 0,-1.2e-5 0.0178,0.0021 0.0532,0.0064 l 0.0532,0.0065 c 0.0375,-0.01269 0.1211,-0.037 0.25108,-0.0729 0.14771,-0.03377 0.24125,-0.06548 0.28059,-0.09516 0.32548,0.142812 0.65791,0.303702 0.99727,0.482669 0.35518,0.198088 0.71227,0.379194 1.07132,0.543324 0.35709,0.181095 0.7171,0.336717 1.07999,0.466865 0.36289,0.13012 0.71288,0.215631 1.04997,0.256523 0.24835,0.03011 0.46221,0.04739 0.64155,0.05197 0.19707,0.0067 0.38721,-0.0047 0.57042,-0.03417 0.18125,-0.01248 0.37333,-0.04086 0.57621,-0.08514 0.20093,-0.02731 0.43928,-0.06731 0.71506,-0.119977 0.13576,-0.0869 0.2538,-0.175931 0.35409,-0.267106 0.1161,-0.07206 0.21638,-0.163243 0.30088,-0.273559 0.0845,-0.110343 0.14523,-0.249383 0.18229,-0.417127 0.0371,-0.167763 0.0444,-0.390797 0.0221,-0.669087 -0.27999,-0.06841 -0.61013,-0.09123 -0.9904,-0.06844 -0.38222,0.03977 -0.77523,0.09545 -1.17903,0.167058 -0.40382,0.07159 -0.82344,0.12405 -1.25887,0.157377 -0.43543,0.0333 -0.8562,0.01673 -1.2623,-0.04974 -0.4061,-0.06648 -0.80158,-0.226411 -1.18645,-0.479774 -0.38872,-0.219402 -0.74425,-0.572568 -1.06659,-1.059499 -0.17462,-0.520708 -0.27925,-1.024307 -0.31388,-1.510796 -0.0169,-0.48435 0.01,-0.954819 0.0795,-1.411419 0.068,-0.43961 0.1635,-0.884485 0.28658,-1.334625 0.12115,-0.433159 0.23445,-0.875879 0.33981,-1.32817 0.10339,-0.435312 0.19795,-0.871691 0.2837,-1.309137 0.0857,-0.437453 0.12797,-0.888789 0.12694,-1.353986 -0.0162,-0.174215 -0.13685,-0.378321 -0.36204,-0.61233 -0.2094,-0.214868 -0.43827,-0.337363 -0.68664,-0.367484"
       style="font-size:26.85062599000000105px;font-style:italic;font-variant:normal;font-weight:bold;font-stretch:normal;line-height:125%;letter-spacing:0px;word-spacing:0px;writing-mode:lr-tb;color:#000000;fill:#822433;fill-opacity:1;fill-rule:nonzero;stroke:none;stroke-width:1px;marker:none;visibility:visible;font-family:Indie Flower;-inkscape-font-specification:Indie Flower Bold Italic"
       id="path3232"
       inkscape:connector-curvature="0" /><path
       d="m 169.77856,89.583697 c 0.0381,0.29744 0.15127,0.64705 0.3394,1.048819 0.20588,0.403912 0.49257,0.809015 0.86005,1.215311 0.36748,0.406283 0.81961,0.779777 1.35642,1.120486 0.55261,0.359834 1.18583,0.643329 1.89968,0.850485 0.71385,0.207139 1.51121,0.312453 2.3921,0.315942 0.88086,0.0035 1.85896,-0.136281 2.93427,-0.41926 -0.002,0.01698 0.006,0.104091 0.0242,0.261309 l -0.0261,0.229375 c 0.0562,0.454658 -0.0305,0.900606 -0.25997,1.337852 -0.22956,0.437222 -0.53315,0.813802 -0.91077,1.129739 -0.37957,0.332904 -0.80366,0.582907 -1.27227,0.75001 -0.45282,0.18622 -0.90099,0.252443 -1.34449,0.198668 -0.17742,-0.02153 -0.33419,-0.06638 -0.47031,-0.134547 -0.13614,-0.06819 -0.27034,-0.153372 -0.4026,-0.255525 -0.13421,-0.08518 -0.25954,-0.169286 -0.37599,-0.252298 -0.1184,-0.06604 -0.25743,-0.108748 -0.41709,-0.128091 -0.0355,-0.0043 -0.0541,0.002 -0.0561,0.01904 -0.0197,0.01483 -0.0305,0.03074 -0.0324,0.04774 -0.0394,0.02966 -0.0885,0.06676 -0.14754,0.111294 -0.059,0.04451 -0.0895,0.07525 -0.0915,0.09226 0.0362,0.314424 0.12158,0.591766 0.25615,0.832023 0.13455,0.240229 0.30942,0.442298 0.5246,0.606206 0.21517,0.163883 0.45195,0.295948 0.71034,0.396197 0.2742,0.119364 0.55321,0.196266 0.83707,0.230704 0.69961,0.01593 1.35354,-0.120071 1.9618,-0.408012 0.62405,-0.268828 1.17891,-0.640771 1.66456,-1.115833 0.50338,-0.472935 0.92772,-1.041569 1.27301,-1.705904 0.34335,-0.647366 0.61074,-1.338383 0.80217,-2.073055 0.20721,-0.715548 0.31784,-1.451414 0.33189,-2.2076 0.0356,-0.788038 -0.0233,-1.535845 -0.17665,-2.243439 -0.0178,-0.0022 -0.0709,-0.0086 -0.15966,-0.01936 -0.0906,0.0062 -0.18919,0.0029 -0.29562,-0.01002 -0.0906,0.0062 -0.17241,0.01354 -0.24529,0.02192 l -0.13596,0.0093 c -0.30366,0.77274 -0.66089,1.383963 -1.07171,1.833667 -0.41083,0.449693 -0.82682,0.786803 -1.24801,1.011326 -0.42313,0.241501 -0.82677,0.390636 -1.2109,0.447406 -0.38608,0.07374 -0.69733,0.122122 -0.93374,0.145132 -0.26612,-0.03228 -0.58352,-0.088 -0.9522,-0.167152 -0.3687,-0.07917 -0.75224,-0.185972 -1.15061,-0.320404 -0.39839,-0.134445 -0.80177,-0.303942 -1.21016,-0.508487 -0.41033,-0.18757 -0.78131,-0.40481 -1.11294,-0.651723 -0.33164,-0.246925 -0.60524,-0.529866 -0.82076,-0.848823 -0.21748,-0.301979 -0.34045,-0.644165 -0.36893,-1.026562 -0.0423,-0.418537 0.0859,-0.756089 0.38489,-1.012655 0.31475,-0.237429 0.70449,-0.422698 1.16926,-0.555804 0.46283,-0.116121 0.9376,-0.179116 1.42433,-0.188985 0.50446,-0.0077 0.90748,0.0067 1.20908,0.04328 0.49672,0.06024 0.9817,0.144894 1.45491,0.253956 0.49094,0.111212 0.97205,0.229847 1.44332,0.355903 0.47127,0.126051 0.94351,0.243611 1.41672,0.352677 0.47319,0.10906 0.94042,0.191561 1.40169,0.247502 0.0355,0.0043 0.0975,0.01183 0.18628,0.02259 0.0887,0.01075 0.17835,0.01306 0.269,0.0068 0.0887,0.01076 0.16853,0.02044 0.23951,0.02905 0.0887,0.01076 0.15077,0.01828 0.18627,0.02259 0.1477,-0.03376 0.21848,-0.102693 0.21234,-0.206785 0.0116,-0.101947 0.014,-0.204998 0.008,-0.309057 -0.006,-0.104099 -0.12666,-0.230675 -0.3615,-0.379729 -0.23486,-0.149058 -0.54068,-0.306721 -0.91743,-0.472986 -0.35905,-0.164119 -0.76147,-0.34211 -1.20727,-0.533975 -0.44775,-0.174876 -0.87968,-0.330608 -1.29578,-0.467196 -0.39839,-0.134446 -0.77113,-0.257157 -1.11821,-0.368149 -0.34902,-0.094 -0.5945,-0.149608 -0.73641,-0.166818 -0.74512,-0.09037 -1.53247,-0.125569 -2.36204,-0.105601 -0.81185,0.02212 -1.55449,0.147362 -2.22792,0.37574 -0.65761,0.247518 -1.18682,0.631186 -1.58762,1.151 -0.40081,0.519811 -0.55384,1.23331 -0.45912,2.140496"
       style="font-size:26.85062599000000105px;font-style:italic;font-variant:normal;font-weight:bold;font-stretch:normal;line-height:125%;letter-spacing:0px;word-spacing:0px;writing-mode:lr-tb;color:#000000;fill:#83af23;fill-opacity:1;fill-rule:nonzero;stroke:none;stroke-width:1px;marker:none;visibility:visible;font-family:Indie Flower;-inkscape-font-specification:Indie Flower Bold Italic"
       id="path3234"
       inkscape:connector-curvature="0" /><path
       d="m 184.6365,89.837421 c 0.10896,1.09838 0.38803,2.045144 0.83721,2.840296 0.46691,0.79729 1.03895,1.460924 1.7161,1.990903 0.6949,0.532114 1.48315,0.954984 2.36475,1.268609 0.88159,0.313606 1.79252,0.52743 2.73277,0.641472 0.76284,0.09251 1.49486,0.06071 2.19605,-0.09539 0.70117,-0.156122 1.3154,-0.417514 1.84268,-0.784182 0.52727,-0.366685 0.92325,-0.844022 1.18793,-1.432012 0.2824,-0.585853 0.38819,-1.279245 0.31741,-2.08017 -0.0647,-0.696844 -0.24933,-1.287659 -0.55392,-1.772444 -0.30654,-0.467802 -0.70256,-0.860328 -1.18806,-1.177579 -0.48745,-0.300267 -1.01811,-0.536872 -1.59194,-0.709813 -0.55612,-0.170796 -1.1269,-0.291693 -1.71234,-0.362691 -0.56771,-0.06885 -1.14717,-0.11329 -1.73839,-0.13332 -0.59125,-0.02003 -1.12812,0.03543 -1.61061,0.166394 -0.48251,0.130955 -0.86919,0.36827 -1.16003,0.711947 -0.27312,0.345822 -0.37734,0.867155 -0.31266,1.563999 0.37254,0.04518 0.72718,0.01067 1.0639,-0.10351 0.33477,-0.0972 0.67149,-0.21139 1.01014,-0.342566 0.3367,-0.114192 0.67244,-0.219886 1.00723,-0.317081 0.31897,-0.116343 0.6736,-0.150846 1.06391,-0.103509 0.28383,0.03442 0.66236,0.106166 1.13557,0.215228 0.49094,0.111212 0.95044,0.261676 1.37852,0.451394 0.42612,0.2067 0.80211,0.458997 1.12797,0.756893 0.32583,0.297887 0.5109,0.647604 0.55519,1.049152 0.0408,0.590588 -0.0517,1.087507 -0.27735,1.490769 -0.2257,0.403244 -0.54028,0.718204 -0.94371,0.944882 -0.38766,0.245802 -0.83854,0.415044 -1.35265,0.507726 -0.51413,0.09266 -1.03729,0.106729 -1.56951,0.04219 -0.0709,-0.0086 -0.24644,-0.04712 -0.52642,-0.115516 -0.28,-0.06842 -0.60144,-0.167683 -0.96433,-0.297812 -0.36483,-0.113152 -0.75338,-0.255011 -1.16563,-0.425576 -0.39645,-0.151436 -0.76242,-0.33362 -1.09792,-0.54655 -0.33743,-0.195953 -0.62762,-0.412008 -0.87055,-0.648162 -0.22519,-0.234016 -0.34992,-0.481679 -0.37417,-0.742988 l -0.0451,-0.315519 c 0.003,-0.189056 0.006,-0.447141 0.007,-0.774268 -7.6e-4,-0.310144 -0.009,-0.629851 -0.0259,-0.95912 -0.0184,-0.312285 -0.023,-0.588443 -0.0138,-0.828463 0.027,-0.237873 0.0334,-0.374905 0.0198,-0.411002 0.0131,-0.274007 0.0348,-0.701998 0.065,-1.283989 0.046,-0.562847 0.082,-1.195798 0.10792,-1.898876 0.0456,-0.717915 0.0952,-1.469801 0.14848,-2.255682 0.0711,-0.783722 0.12849,-1.526042 0.17215,-2.226973 0.0634,-0.715757 0.11802,-1.355061 0.16409,-1.917903 0.046,-0.562839 0.0835,-0.971687 0.11246,-1.226555 0.004,-0.03397 0.007,-0.05946 0.009,-0.07645 0.004,-0.03397 0.007,-0.05946 0.009,-0.07645 0.002,-0.01698 0.003,-0.02548 0.003,-0.02549 l -0.0475,-0.05743 0.006,-0.05097 c -0.0474,-0.05741 -0.13535,-0.154205 -0.26375,-0.29036 -0.14808,-0.121299 -0.2468,-0.202172 -0.29616,-0.242617 l -0.15965,-0.01936 c -0.17742,-0.02151 -0.34656,0.121617 -0.50744,0.42937 -0.15894,0.290782 -0.32254,0.701563 -0.49078,1.232349 -0.14856,0.515961 -0.28906,1.119019 -0.42146,1.809178 -0.13236,0.690174 -0.2677,1.405817 -0.4059,2.146949 -0.12049,0.743287 -0.23109,1.479156 -0.33189,2.207601 -0.083,0.730601 -0.16029,1.410228 -0.23175,2.038884 -0.0537,0.630808 -0.0889,1.177735 -0.10553,1.640794 -0.0166,0.463054 -0.0179,0.790172 -0.004,0.981378"
       style="font-size:26.85062599000000105px;font-style:italic;font-variant:normal;font-weight:bold;font-stretch:normal;line-height:125%;letter-spacing:0px;word-spacing:0px;writing-mode:lr-tb;color:#000000;fill:#0082c6;fill-opacity:1;fill-rule:nonzero;stroke:none;stroke-width:1px;marker:none;visibility:visible;font-family:Indie Flower;-inkscape-font-specification:Indie Flower Bold Italic"
       id="path3236"
       inkscape:connector-curvature="0" /><path
       d="m 206.81145,86.407111 c 0.074,0.456817 0.14601,0.930628 0.21613,1.421429 0.0878,0.492949 0.16681,0.984824 0.23694,1.475629 0.0701,0.490796 0.1323,0.972023 0.18662,1.443687 0.0543,0.471652 0.0957,0.898682 0.12416,1.28109 0.0624,0.558756 0.0301,1.080199 -0.0968,1.564335 -0.10928,0.486261 -0.29944,0.893822 -0.57062,1.222667 -0.25538,0.347966 -0.59867,0.599156 -1.02987,0.75357 -0.43315,0.171383 -0.96018,0.219427 -1.5811,0.144135 -0.24837,-0.03013 -0.4682,-0.07402 -0.65947,-0.131652 -0.17356,-0.05551 -0.35308,-0.137562 -0.53856,-0.246176 -0.18742,-0.09164 -0.38969,-0.210908 -0.60679,-0.357802 -0.23293,-0.166057 -0.49843,-0.361893 -0.79651,-0.587508 0.004,-0.03399 -0.006,-0.104107 -0.03,-0.210337 -0.008,-0.08711 -0.0201,-0.140243 -0.0358,-0.159366 -0.0284,-0.382407 -0.0336,-0.891166 -0.0154,-1.526269 0.0163,-0.618121 0.0365,-1.270228 0.0605,-1.956304 0.0398,-0.666949 0.0688,-1.317974 0.0871,-1.953076 0.0359,-0.632966 0.0319,-1.150206 -0.0125,-1.551753 0.004,-0.03398 -0.006,-0.1041 -0.03,-0.210338 -0.006,-0.1041 -0.0202,-0.217764 -0.0422,-0.341005 -0.004,-0.12109 -0.0183,-0.234754 -0.0422,-0.341005 -0.006,-0.104099 -0.006,-0.181628 -5.2e-4,-0.232599 -0.13263,-0.257235 -0.28379,-0.43059 -0.45347,-0.520069 -0.15388,-0.07033 -0.33726,-0.11841 -0.55014,-0.144228 -0.20903,-0.0598 -0.34962,0.06956 -0.4218,0.388082 -0.0722,0.318515 -0.10756,0.787912 -0.10614,1.408182 0.001,0.620266 0.015,1.371196 0.0407,2.252786 0.0434,0.883734 0.0772,1.852424 0.10132,2.906075 0.0241,1.053638 0.0149,2.163521 -0.0277,3.329656 -0.0446,1.183104 -0.14523,2.38525 -0.30201,3.606443 -0.10725,0.469276 -0.18816,0.86425 -0.2426,1.18493 -0.0386,0.3398 -0.0816,0.63603 -0.12798,0.88879 -0.0487,0.26968 -0.0884,0.54046 -0.11929,0.81233 -0.0151,0.29098 -0.0449,0.63186 -0.0893,1.02267 l 0.015,0.10517 c 0.01,0.0701 0.0565,0.13601 0.13939,0.19776 0.0987,0.0808 0.20727,0.15431 0.32567,0.22036 0.13612,0.0682 0.25645,0.11721 0.36095,0.14713 0.12033,0.049 0.21597,0.0778 0.28694,0.0865 0.25622,-0.83019 0.45361,-1.53831 0.59217,-2.12436 0.15437,-0.56695 0.27343,-1.06064 0.3572,-1.48109 0.0838,-0.420473 0.14201,-0.775136 0.17484,-1.063964 0.0328,-0.288857 0.0469,-0.571356 0.0424,-0.847489 0.0131,-0.274017 0.01,-0.558659 -0.0109,-0.85395 -0.003,-0.293161 0.0103,-0.644694 0.0389,-1.054614 0.96715,0.668479 1.82925,1.074468 2.58631,1.217968 0.75705,0.143475 1.41714,0.111562 1.98027,-0.09573 0.56117,-0.190327 1.03233,-0.537972 1.41347,-1.042933 0.38112,-0.504988 0.68127,-1.088682 0.90045,-1.751087 0.21917,-0.662425 0.36334,-1.376999 0.43251,-2.143724 0.0869,-0.764588 0.11774,-1.51013 0.0924,-2.23665 -0.0253,-0.726522 -0.10969,-1.408523 -0.25304,-2.046003 -0.12756,-0.618344 -0.28541,-1.128397 -0.47354,-1.53016 -0.19008,-0.384776 -0.42415,-0.619863 -0.70219,-0.705257 -0.27614,-0.102385 -0.55076,0.01933 -0.82387,0.365157"
       style="font-size:26.85062599000000105px;font-style:italic;font-variant:normal;font-weight:bold;font-stretch:normal;line-height:125%;letter-spacing:0px;word-spacing:0px;writing-mode:lr-tb;color:#000000;fill:#af111d;fill-opacity:1;fill-rule:nonzero;stroke:none;stroke-width:1px;marker:none;visibility:visible;font-family:Indie Flower;-inkscape-font-specification:Indie Flower Bold Italic"
       id="path3238"
       inkscape:connector-curvature="0" /><g
       inkscape:groupmode="layer"
       id="layer1"
       inkscape:label="Text"
       style="display:none"><text
         style="font-size:12px"
         id="text236"
         x="30.957031"
         y="-211.15723"
         transform="scale(1,-1)"><tspan
           style="font-size:7.30468845px;font-variant:normal;font-weight:normal;writing-mode:lr-tb;fill:#eeeeee;fill-opacity:1;fill-rule:nonzero;stroke:none;font-family:Bitstream Vera Sans;-inkscape-font-specification:BitstreamVeraSans-Roman"
           x="30.957031 33.016953 37.443592 41.088634 45.391094 48.269142 51.0084 53.229023 55.975586 60.409531 62.345276 65.983009 68.203636 71.848671 73.784416 78.225662 82.52813 84.748749 86.684494 91.118439 93.857697 98.138245"
           y="-211.15723"
           sodipodi:role="line"
           id="tspan238">Insert this side into aircraft</tspan></text>
</g><g
       transform="scale(1,-1)"
       style="font-size:12px"
       id="text236-6"><path
         d="m 31.673946,-216.48237 0.720482,0 0,5.32514 -0.720482,0 0,-5.32514"
         style="font-size:7.30468845px;font-variant:normal;font-weight:normal;writing-mode:lr-tb;fill:#eeeeee;fill-opacity:1;fill-rule:nonzero;stroke:none;font-family:Bitstream Vera Sans;-inkscape-font-specification:BitstreamVeraSans-Roman"
         id="path3331" /><path
         d="m 37.025971,-213.56834 0,2.41111 -0.656281,0 0,-2.38971 c -3e-6,-0.37808 -0.07372,-0.66104 -0.221138,-0.84889 -0.147428,-0.18784 -0.368566,-0.28177 -0.663414,-0.28177 -0.354298,0 -0.633693,0.11295 -0.838184,0.33884 -0.204495,0.2259 -0.306741,0.53382 -0.30674,0.92379 l 0,2.25774 -0.659847,0 0,-3.99475 0.659847,0 0,0.62062 c 0.156935,-0.24016 0.341217,-0.41969 0.552845,-0.53858 0.214002,-0.11889 0.460107,-0.17834 0.738316,-0.17834 0.458917,0 0.80608,0.14267 1.041488,0.42801 0.235402,0.28296 0.353104,0.70027 0.353108,1.25193"
         style="font-size:7.30468845px;font-variant:normal;font-weight:normal;writing-mode:lr-tb;fill:#eeeeee;fill-opacity:1;fill-rule:nonzero;stroke:none;font-family:Bitstream Vera Sans;-inkscape-font-specification:BitstreamVeraSans-Roman"
         id="path3333" /><path
         d="m 40.678627,-215.03428 0,0.62062 c -0.185473,-0.0951 -0.378077,-0.16645 -0.577812,-0.21401 -0.19974,-0.0476 -0.406611,-0.0713 -0.620613,-0.0713 -0.325764,0 -0.57068,0.0499 -0.734749,0.1498 -0.161693,0.0999 -0.242539,0.24968 -0.242538,0.44941 -1e-6,0.15218 0.05825,0.27226 0.17477,0.36024 0.116512,0.0856 0.350728,0.16764 0.702648,0.24611 l 0.224705,0.0499 c 0.466052,0.0999 0.796569,0.24135 0.991554,0.42444 0.197357,0.18072 0.296037,0.43396 0.29604,0.75972 -3e-6,0.37094 -0.147429,0.6646 -0.442276,0.88099 -0.292476,0.21638 -0.695517,0.32457 -1.209126,0.32457 -0.214006,0 -0.437522,-0.0214 -0.670547,-0.0642 -0.230651,-0.0404 -0.474378,-0.10225 -0.731183,-0.18547 l 0,-0.67768 c 0.242538,0.12602 0.48151,0.22113 0.716916,0.28534 0.235403,0.0618 0.46843,0.0927 0.699081,0.0927 0.309116,0 0.546898,-0.0523 0.713349,-0.15694 0.166445,-0.107 0.249669,-0.2568 0.249672,-0.44941 -3e-6,-0.17833 -0.06064,-0.31506 -0.181904,-0.41017 -0.118894,-0.0951 -0.381644,-0.18666 -0.78825,-0.27464 l -0.228272,-0.0535 c -0.40661,-0.0856 -0.700271,-0.21638 -0.880985,-0.39234 -0.180716,-0.17834 -0.271073,-0.42206 -0.271073,-0.73119 0,-0.37569 0.133158,-0.66578 0.399476,-0.87028 0.266315,-0.20449 0.64439,-0.30674 1.134224,-0.30674 0.242536,0 0.470807,0.0178 0.684814,0.0535 0.214002,0.0357 0.411361,0.0892 0.592079,0.1605"
         style="font-size:7.30468845px;font-variant:normal;font-weight:normal;writing-mode:lr-tb;fill:#eeeeee;fill-opacity:1;fill-rule:nonzero;stroke:none;font-family:Bitstream Vera Sans;-inkscape-font-specification:BitstreamVeraSans-Roman"
         id="path3335" /><path
         d="m 45.193955,-213.31867 0,0.321 -3.017464,0 c 0.02853,0.45179 0.164069,0.79658 0.406609,1.03436 0.244914,0.23541 0.584943,0.35311 1.020088,0.35311 0.252047,0 0.495774,-0.0309 0.731182,-0.0927 0.237779,-0.0618 0.473184,-0.15456 0.706215,-0.2782 l 0,0.62061 c -0.235409,0.0999 -0.476758,0.17596 -0.724049,0.22827 -0.247297,0.0523 -0.498157,0.0785 -0.752582,0.0785 -0.63726,0 -1.142548,-0.18547 -1.515866,-0.55641 -0.370942,-0.37094 -0.556412,-0.87266 -0.556412,-1.50517 0,-0.6539 0.175959,-1.17226 0.527878,-1.5551 0.354295,-0.3852 0.831049,-0.57781 1.430264,-0.57781 0.537386,0 0.961828,0.17359 1.273327,0.52074 0.313869,0.34479 0.470806,0.81441 0.47081,1.40887 m -0.656281,-0.19261 c -0.0048,-0.35905 -0.105816,-0.64557 -0.303173,-0.85958 -0.194985,-0.214 -0.454168,-0.321 -0.77755,-0.32101 -0.366187,1e-5 -0.659849,0.10344 -0.880985,0.31031 -0.218761,0.20687 -0.344786,0.49816 -0.378075,0.87385 l 2.339783,-0.004"
         style="font-size:7.30468845px;font-variant:normal;font-weight:normal;writing-mode:lr-tb;fill:#eeeeee;fill-opacity:1;fill-rule:nonzero;stroke:none;font-family:Bitstream Vera Sans;-inkscape-font-specification:BitstreamVeraSans-Roman"
         id="path3337" /><path
         d="m 48.394291,-214.5385 c -0.07371,-0.0428 -0.154561,-0.0737 -0.242538,-0.0927 -0.08561,-0.0214 -0.180718,-0.0321 -0.28534,-0.0321 -0.370943,0 -0.656282,0.12127 -0.856018,0.3638 -0.197361,0.24017 -0.296041,0.58614 -0.296039,1.03793 l 0,2.10437 -0.659848,0 0,-3.99475 0.659848,0 0,0.62062 c 0.137912,-0.24254 0.317438,-0.42207 0.538578,-0.53858 0.221136,-0.11889 0.48983,-0.17834 0.806084,-0.17834 0.04518,0 0.09511,0.004 0.149803,0.0107 0.05469,0.005 0.115321,0.0131 0.181904,0.025 l 0.0036,0.67411"
         style="font-size:7.30468845px;font-variant:normal;font-weight:normal;writing-mode:lr-tb;fill:#eeeeee;fill-opacity:1;fill-rule:nonzero;stroke:none;font-family:Bitstream Vera Sans;-inkscape-font-specification:BitstreamVeraSans-Roman"
         id="path3339" /><path
         d="m 49.606671,-216.2862 0,1.13422 1.351795,0 0,0.51005 -1.351795,0 0,2.16858 c -2e-6,0.32576 0.04399,0.53501 0.131969,0.62774 0.09036,0.0927 0.27226,0.13911 0.545712,0.13911 l 0.674114,0 0,0.54927 -0.674114,0 c -0.506479,0 -0.85602,-0.0939 -1.048623,-0.28177 -0.192605,-0.19023 -0.288906,-0.53501 -0.288906,-1.03435 l 0,-2.16858 -0.48151,0 0,-0.51005 0.48151,0 0,-1.13422 0.659848,0"
         style="font-size:7.30468845px;font-variant:normal;font-weight:normal;writing-mode:lr-tb;fill:#eeeeee;fill-opacity:1;fill-rule:nonzero;stroke:none;font-family:Bitstream Vera Sans;-inkscape-font-specification:BitstreamVeraSans-Roman"
         id="path3341" /><path
         d="m 54.566551,-216.2862 0,1.13422 1.351796,0 0,0.51005 -1.351796,0 0,2.16858 c -10e-7,0.32576 0.04399,0.53501 0.13197,0.62774 0.09036,0.0927 0.272259,0.13911 0.545711,0.13911 l 0.674115,0 0,0.54927 -0.674115,0 c -0.506478,0 -0.856019,-0.0939 -1.048622,-0.28177 -0.192605,-0.19023 -0.288907,-0.53501 -0.288906,-1.03435 l 0,-2.16858 -0.48151,0 0,-0.51005 0.48151,0 0,-1.13422 0.659847,0"
         style="font-size:7.30468845px;font-variant:normal;font-weight:normal;writing-mode:lr-tb;fill:#eeeeee;fill-opacity:1;fill-rule:nonzero;stroke:none;font-family:Bitstream Vera Sans;-inkscape-font-specification:BitstreamVeraSans-Roman"
         id="path3343" /><path
         d="m 59.984604,-213.56834 0,2.41111 -0.65628,0 0,-2.38971 c -4e-6,-0.37808 -0.07372,-0.66104 -0.221138,-0.84889 -0.147429,-0.18784 -0.368566,-0.28177 -0.663414,-0.28177 -0.354299,0 -0.633693,0.11295 -0.838185,0.33884 -0.204494,0.2259 -0.306741,0.53382 -0.30674,0.92379 l 0,2.25774 -0.659847,0 0,-5.54985 0.659847,0 0,2.17572 c 0.156936,-0.24016 0.341217,-0.41969 0.552845,-0.53858 0.214003,-0.11889 0.460108,-0.17834 0.738316,-0.17834 0.458918,0 0.80608,0.14267 1.041489,0.42801 0.235401,0.28296 0.353103,0.70027 0.353107,1.25193"
         style="font-size:7.30468845px;font-variant:normal;font-weight:normal;writing-mode:lr-tb;fill:#eeeeee;fill-opacity:1;fill-rule:nonzero;stroke:none;font-family:Bitstream Vera Sans;-inkscape-font-specification:BitstreamVeraSans-Roman"
         id="path3345" /><path
         d="m 61.097912,-215.15198 0.656281,0 0,3.99475 -0.656281,0 0,-3.99475 m 0,-1.5551 0.656281,0 0,0.83105 -0.656281,0 0,-0.83105"
         style="font-size:7.30468845px;font-variant:normal;font-weight:normal;writing-mode:lr-tb;fill:#eeeeee;fill-opacity:1;fill-rule:nonzero;stroke:none;font-family:Bitstream Vera Sans;-inkscape-font-specification:BitstreamVeraSans-Roman"
         id="path3347" /><path
         d="m 65.580311,-215.03428 0,0.62062 c -0.185473,-0.0951 -0.378077,-0.16645 -0.577812,-0.21401 -0.19974,-0.0476 -0.406611,-0.0713 -0.620613,-0.0713 -0.325764,0 -0.57068,0.0499 -0.734749,0.1498 -0.161694,0.0999 -0.24254,0.24968 -0.242539,0.44941 -10e-7,0.15218 0.05826,0.27226 0.174771,0.36024 0.116512,0.0856 0.350728,0.16764 0.702648,0.24611 l 0.224705,0.0499 c 0.466051,0.0999 0.796569,0.24135 0.991554,0.42444 0.197357,0.18072 0.296036,0.43396 0.29604,0.75972 -4e-6,0.37094 -0.147429,0.6646 -0.442276,0.88099 -0.292476,0.21638 -0.695517,0.32457 -1.209126,0.32457 -0.214006,0 -0.437522,-0.0214 -0.670548,-0.0642 -0.23065,-0.0404 -0.474377,-0.10225 -0.731182,-0.18547 l 0,-0.67768 c 0.242538,0.12602 0.48151,0.22113 0.716916,0.28534 0.235403,0.0618 0.46843,0.0927 0.699081,0.0927 0.309116,0 0.546898,-0.0523 0.713349,-0.15694 0.166445,-0.107 0.249669,-0.2568 0.249671,-0.44941 -2e-6,-0.17833 -0.06064,-0.31506 -0.181903,-0.41017 -0.118894,-0.0951 -0.381644,-0.18666 -0.78825,-0.27464 l -0.228272,-0.0535 c -0.40661,-0.0856 -0.700271,-0.21638 -0.880985,-0.39234 -0.180716,-0.17834 -0.271073,-0.42206 -0.271073,-0.73119 0,-0.37569 0.133158,-0.66578 0.399475,-0.87028 0.266316,-0.20449 0.64439,-0.30674 1.134224,-0.30674 0.242537,0 0.470808,0.0178 0.684815,0.0535 0.214002,0.0357 0.411361,0.0892 0.592079,0.1605"
         style="font-size:7.30468845px;font-variant:normal;font-weight:normal;writing-mode:lr-tb;fill:#eeeeee;fill-opacity:1;fill-rule:nonzero;stroke:none;font-family:Bitstream Vera Sans;-inkscape-font-specification:BitstreamVeraSans-Roman"
         id="path3349" /><path
         d="m 71.438672,-215.03428 0,0.62062 c -0.185474,-0.0951 -0.378078,-0.16645 -0.577813,-0.21401 -0.19974,-0.0476 -0.406611,-0.0713 -0.620613,-0.0713 -0.325764,0 -0.57068,0.0499 -0.734749,0.1498 -0.161693,0.0999 -0.242539,0.24968 -0.242538,0.44941 -10e-7,0.15218 0.05826,0.27226 0.17477,0.36024 0.116512,0.0856 0.350728,0.16764 0.702648,0.24611 l 0.224705,0.0499 c 0.466052,0.0999 0.79657,0.24135 0.991554,0.42444 0.197357,0.18072 0.296037,0.43396 0.29604,0.75972 -3e-6,0.37094 -0.147429,0.6646 -0.442276,0.88099 -0.292476,0.21638 -0.695517,0.32457 -1.209126,0.32457 -0.214006,0 -0.437521,-0.0214 -0.670547,-0.0642 -0.23065,-0.0404 -0.474378,-0.10225 -0.731182,-0.18547 l 0,-0.67768 c 0.242537,0.12602 0.481509,0.22113 0.716915,0.28534 0.235403,0.0618 0.46843,0.0927 0.699081,0.0927 0.309116,0 0.546898,-0.0523 0.713349,-0.15694 0.166445,-0.107 0.249669,-0.2568 0.249672,-0.44941 -3e-6,-0.17833 -0.06064,-0.31506 -0.181904,-0.41017 -0.118894,-0.0951 -0.381644,-0.18666 -0.78825,-0.27464 l -0.228272,-0.0535 c -0.406609,-0.0856 -0.700271,-0.21638 -0.880985,-0.39234 -0.180716,-0.17834 -0.271073,-0.42206 -0.271072,-0.73119 -10e-7,-0.37569 0.133157,-0.66578 0.399475,-0.87028 0.266315,-0.20449 0.64439,-0.30674 1.134224,-0.30674 0.242536,0 0.470807,0.0178 0.684814,0.0535 0.214002,0.0357 0.411362,0.0892 0.59208,0.1605"
         style="font-size:7.30468845px;font-variant:normal;font-weight:normal;writing-mode:lr-tb;fill:#eeeeee;fill-opacity:1;fill-rule:nonzero;stroke:none;font-family:Bitstream Vera Sans;-inkscape-font-specification:BitstreamVeraSans-Roman"
         id="path3351" /><path
         d="m 72.537052,-215.15198 0.656281,0 0,3.99475 -0.656281,0 0,-3.99475 m 0,-1.5551 0.656281,0 0,0.83105 -0.656281,0 0,-0.83105"
         style="font-size:7.30468845px;font-variant:normal;font-weight:normal;writing-mode:lr-tb;fill:#eeeeee;fill-opacity:1;fill-rule:nonzero;stroke:none;font-family:Bitstream Vera Sans;-inkscape-font-specification:BitstreamVeraSans-Roman"
         id="path3353" /><path
         d="m 77.101487,-214.54563 0,-2.16145 0.65628,0 0,5.54985 -0.65628,0 0,-0.59921 c -0.137918,0.23778 -0.312688,0.41493 -0.524311,0.53145 -0.209252,0.11413 -0.461302,0.1712 -0.75615,0.1712 -0.482701,0 -0.876231,-0.19261 -1.180592,-0.57781 -0.301984,-0.38521 -0.452976,-0.89169 -0.452976,-1.51944 0,-0.62774 0.150992,-1.13422 0.452976,-1.51943 0.304361,-0.3852 0.697891,-0.57781 1.180592,-0.57781 0.294848,0 0.546898,0.0583 0.75615,0.17477 0.211623,0.11414 0.386393,0.2901 0.524311,0.52788 m -2.236348,1.39459 c -10e-7,0.48271 0.09868,0.86197 0.29604,1.1378 0.199736,0.27345 0.473186,0.41017 0.820351,0.41017 0.34716,0 0.62061,-0.13672 0.82035,-0.41017 0.199735,-0.27583 0.299603,-0.65509 0.299607,-1.1378 -4e-6,-0.48269 -0.09987,-0.86077 -0.299607,-1.13422 -0.19974,-0.27582 -0.47319,-0.41374 -0.82035,-0.41374 -0.347165,0 -0.620615,0.13792 -0.820351,0.41374 -0.197361,0.27345 -0.296041,0.65153 -0.29604,1.13422"
         style="font-size:7.30468845px;font-variant:normal;font-weight:normal;writing-mode:lr-tb;fill:#eeeeee;fill-opacity:1;fill-rule:nonzero;stroke:none;font-family:Bitstream Vera Sans;-inkscape-font-specification:BitstreamVeraSans-Roman"
         id="path3355" /><path
         d="m 82.330983,-213.31867 0,0.321 -3.017464,0 c 0.02853,0.45179 0.164069,0.79658 0.406608,1.03436 0.244915,0.23541 0.584944,0.35311 1.020089,0.35311 0.252047,0 0.495774,-0.0309 0.731182,-0.0927 0.237779,-0.0618 0.473184,-0.15456 0.706215,-0.2782 l 0,0.62061 c -0.235409,0.0999 -0.476758,0.17596 -0.724049,0.22827 -0.247297,0.0523 -0.498158,0.0785 -0.752583,0.0785 -0.637259,0 -1.142547,-0.18547 -1.515865,-0.55641 -0.370942,-0.37094 -0.556412,-0.87266 -0.556412,-1.50517 0,-0.6539 0.175959,-1.17226 0.527878,-1.5551 0.354295,-0.3852 0.831049,-0.57781 1.430264,-0.57781 0.537386,0 0.961828,0.17359 1.273327,0.52074 0.313869,0.34479 0.470806,0.81441 0.47081,1.40887 m -0.656281,-0.19261 c -0.0048,-0.35905 -0.105817,-0.64557 -0.303173,-0.85958 -0.194985,-0.214 -0.454168,-0.321 -0.77755,-0.32101 -0.366187,1e-5 -0.659849,0.10344 -0.880985,0.31031 -0.218762,0.20687 -0.344786,0.49816 -0.378075,0.87385 l 2.339783,-0.004"
         style="font-size:7.30468845px;font-variant:normal;font-weight:normal;writing-mode:lr-tb;fill:#eeeeee;fill-opacity:1;fill-rule:nonzero;stroke:none;font-family:Bitstream Vera Sans;-inkscape-font-specification:BitstreamVeraSans-Roman"
         id="path3357" /><path
         d="m 85.437138,-215.15198 0.65628,0 0,3.99475 -0.65628,0 0,-3.99475 m 0,-1.5551 0.65628,0 0,0.83105 -0.65628,0 0,-0.83105"
         style="font-size:7.30468845px;font-variant:normal;font-weight:normal;writing-mode:lr-tb;fill:#eeeeee;fill-opacity:1;fill-rule:nonzero;stroke:none;font-family:Bitstream Vera Sans;-inkscape-font-specification:BitstreamVeraSans-Roman"
         id="path3359" /><path
         d="m 90.693512,-213.56834 0,2.41111 -0.65628,0 0,-2.38971 c -3e-6,-0.37808 -0.07372,-0.66104 -0.221138,-0.84889 -0.147428,-0.18784 -0.368566,-0.28177 -0.663414,-0.28177 -0.354299,0 -0.633693,0.11295 -0.838185,0.33884 -0.204494,0.2259 -0.306741,0.53382 -0.30674,0.92379 l 0,2.25774 -0.659847,0 0,-3.99475 0.659847,0 0,0.62062 c 0.156936,-0.24016 0.341217,-0.41969 0.552846,-0.53858 0.214002,-0.11889 0.460107,-0.17834 0.738315,-0.17834 0.458918,0 0.806081,0.14267 1.041489,0.42801 0.235401,0.28296 0.353103,0.70027 0.353107,1.25193"
         style="font-size:7.30468845px;font-variant:normal;font-weight:normal;writing-mode:lr-tb;fill:#eeeeee;fill-opacity:1;fill-rule:nonzero;stroke:none;font-family:Bitstream Vera Sans;-inkscape-font-specification:BitstreamVeraSans-Roman"
         id="path3361" /><path
         d="m 92.455975,-216.2862 0,1.13422 1.351795,0 0,0.51005 -1.351795,0 0,2.16858 c -2e-6,0.32576 0.04399,0.53501 0.131969,0.62774 0.09036,0.0927 0.27226,0.13911 0.545712,0.13911 l 0.674114,0 0,0.54927 -0.674114,0 c -0.506479,0 -0.85602,-0.0939 -1.048622,-0.28177 -0.192605,-0.19023 -0.288907,-0.53501 -0.288907,-1.03435 l 0,-2.16858 -0.48151,0 0,-0.51005 0.48151,0 0,-1.13422 0.659848,0"
         style="font-size:7.30468845px;font-variant:normal;font-weight:normal;writing-mode:lr-tb;fill:#eeeeee;fill-opacity:1;fill-rule:nonzero;stroke:none;font-family:Bitstream Vera Sans;-inkscape-font-specification:BitstreamVeraSans-Roman"
         id="path3363" /><path
         d="m 96.094052,-214.69187 c -0.351921,1e-5 -0.630126,0.13792 -0.834618,0.41374 -0.204494,0.27346 -0.306741,0.64915 -0.30674,1.12709 -10e-7,0.47795 0.101057,0.85483 0.303173,1.13066 0.204492,0.27345 0.483886,0.41018 0.838185,0.41018 0.349538,0 0.626555,-0.13792 0.831051,-0.41374 0.20449,-0.27583 0.306736,-0.65153 0.306739,-1.1271 -3e-6,-0.47318 -0.102249,-0.84769 -0.306739,-1.12352 -0.204496,-0.2782 -0.481513,-0.4173 -0.831051,-0.41731 m 0,-0.55641 c 0.570676,0 1.018896,0.18547 1.344662,0.55641 0.325758,0.37095 0.488639,0.88456 0.488643,1.54083 -4e-6,0.65391 -0.162885,1.16752 -0.488643,1.54084 -0.325766,0.37094 -0.773986,0.55641 -1.344662,0.55641 -0.573059,0 -1.022468,-0.18547 -1.348229,-0.55641 -0.323385,-0.37332 -0.485077,-0.88693 -0.485077,-1.54084 0,-0.65627 0.161692,-1.16988 0.485077,-1.54083 0.325761,-0.37094 0.77517,-0.55641 1.348229,-0.55641"
         style="font-size:7.30468845px;font-variant:normal;font-weight:normal;writing-mode:lr-tb;fill:#eeeeee;fill-opacity:1;fill-rule:nonzero;stroke:none;font-family:Bitstream Vera Sans;-inkscape-font-specification:BitstreamVeraSans-Roman"
         id="path3365" /><path
         d="m 102.96762,-213.1653 c -0.53026,0 -0.89763,0.0606 -1.10212,0.1819 -0.2045,0.12127 -0.30674,0.32814 -0.30674,0.62061 0,0.23303 0.0761,0.4185 0.22827,0.55642 0.15456,0.13553 0.36381,0.2033 0.62775,0.2033 0.3638,0 0.65509,-0.1284 0.87385,-0.38521 0.22113,-0.25918 0.3317,-0.60278 0.33171,-1.03079 l 0,-0.14623 -0.65272,0 m 1.309,-0.27107 0,2.27914 -0.65628,0 0,-0.60634 c -0.14981,0.24254 -0.33647,0.42206 -0.55998,0.53858 -0.22352,0.11413 -0.49697,0.1712 -0.82035,0.1712 -0.40899,0 -0.73475,-0.11414 -0.97729,-0.34241 -0.24016,-0.23065 -0.36024,-0.53858 -0.36024,-0.92378 0,-0.44941 0.1498,-0.78825 0.44941,-1.01653 0.30198,-0.22827 0.75139,-0.3424 1.34823,-0.3424 l 0.92022,0 0,-0.0642 c -1e-5,-0.30199 -0.0999,-0.53501 -0.29961,-0.69909 -0.19736,-0.16644 -0.47557,-0.24966 -0.83462,-0.24967 -0.22827,1e-5 -0.4506,0.0273 -0.66698,0.082 -0.21638,0.0547 -0.42444,0.13673 -0.62418,0.2461 l 0,-0.60634 c 0.24016,-0.0927 0.47319,-0.16169 0.69908,-0.20688 0.22589,-0.0476 0.44584,-0.0713 0.65985,-0.0713 0.57781,0 1.00938,0.14981 1.29473,0.44941 0.28533,0.29961 0.428,0.75377 0.42801,1.3625"
         style="font-size:7.30468845px;font-variant:normal;font-weight:normal;writing-mode:lr-tb;fill:#eeeeee;fill-opacity:1;fill-rule:nonzero;stroke:none;font-family:Bitstream Vera Sans;-inkscape-font-specification:BitstreamVeraSans-Roman"
         id="path3367" /><path
         d="m 105.63198,-215.15198 0.65628,0 0,3.99475 -0.65628,0 0,-3.99475 m 0,-1.5551 0.65628,0 0,0.83105 -0.65628,0 0,-0.83105"
         style="font-size:7.30468845px;font-variant:normal;font-weight:normal;writing-mode:lr-tb;fill:#eeeeee;fill-opacity:1;fill-rule:nonzero;stroke:none;font-family:Bitstream Vera Sans;-inkscape-font-specification:BitstreamVeraSans-Roman"
         id="path3369" /><path
         d="m 109.9727,-214.5385 c -0.0737,-0.0428 -0.15456,-0.0737 -0.24254,-0.0927 -0.0856,-0.0214 -0.18071,-0.0321 -0.28533,-0.0321 -0.37095,0 -0.65629,0.12127 -0.85602,0.3638 -0.19736,0.24017 -0.29604,0.58614 -0.29604,1.03793 l 0,2.10437 -0.65985,0 0,-3.99475 0.65985,0 0,0.62062 c 0.13791,-0.24254 0.31744,-0.42207 0.53858,-0.53858 0.22113,-0.11889 0.48983,-0.17834 0.80608,-0.17834 0.0452,0 0.0951,0.004 0.1498,0.0107 0.0547,0.005 0.11532,0.0131 0.18191,0.025 l 0.004,0.67411"
         style="font-size:7.30468845px;font-variant:normal;font-weight:normal;writing-mode:lr-tb;fill:#eeeeee;fill-opacity:1;fill-rule:nonzero;stroke:none;font-family:Bitstream Vera Sans;-inkscape-font-specification:BitstreamVeraSans-Roman"
         id="path3371" /><path
         d="m 113.39321,-214.99861 0,0.61348 c -0.18548,-0.10224 -0.37213,-0.17833 -0.55998,-0.22827 -0.18547,-0.0523 -0.37332,-0.0785 -0.56354,-0.0785 -0.42564,1e-5 -0.75616,0.13554 -0.99156,0.40661 -0.23541,0.2687 -0.35311,0.64677 -0.35311,1.13422 0,0.48746 0.1177,0.86672 0.35311,1.1378 0.2354,0.26869 0.56592,0.40304 0.99156,0.40304 0.19022,0 0.37807,-0.025 0.56354,-0.0749 0.18785,-0.0523 0.3745,-0.1296 0.55998,-0.23184 l 0,0.60634 c -0.1831,0.0856 -0.37332,0.14981 -0.57068,0.19261 -0.19498,0.0428 -0.40304,0.0642 -0.62418,0.0642 -0.60159,0 -1.07954,-0.18904 -1.43383,-0.56711 -0.3543,-0.37808 -0.53145,-0.88812 -0.53144,-1.53014 -1e-5,-0.65152 0.17833,-1.16394 0.53501,-1.53726 0.35905,-0.37332 0.85007,-0.55998 1.47306,-0.55998 0.20211,0 0.39947,0.0214 0.59208,0.0642 0.1926,0.0404 0.37926,0.10225 0.55998,0.18547"
         style="font-size:7.30468845px;font-variant:normal;font-weight:normal;writing-mode:lr-tb;fill:#eeeeee;fill-opacity:1;fill-rule:nonzero;stroke:none;font-family:Bitstream Vera Sans;-inkscape-font-specification:BitstreamVeraSans-Roman"
         id="path3373" /><path
         d="m 116.86365,-214.5385 c -0.0737,-0.0428 -0.15456,-0.0737 -0.24254,-0.0927 -0.0856,-0.0214 -0.18072,-0.0321 -0.28534,-0.0321 -0.37094,0 -0.65628,0.12127 -0.85602,0.3638 -0.19736,0.24017 -0.29604,0.58614 -0.29604,1.03793 l 0,2.10437 -0.65984,0 0,-3.99475 0.65984,0 0,0.62062 c 0.13792,-0.24254 0.31744,-0.42207 0.53858,-0.53858 0.22114,-0.11889 0.48983,-0.17834 0.80609,-0.17834 0.0452,0 0.0951,0.004 0.1498,0.0107 0.0547,0.005 0.11532,0.0131 0.1819,0.025 l 0.004,0.67411"
         style="font-size:7.30468845px;font-variant:normal;font-weight:normal;writing-mode:lr-tb;fill:#eeeeee;fill-opacity:1;fill-rule:nonzero;stroke:none;font-family:Bitstream Vera Sans;-inkscape-font-specification:BitstreamVeraSans-Roman"
         id="path3375" /><path
         d="m 119.37464,-213.1653 c -0.53026,0 -0.89764,0.0606 -1.10213,0.1819 -0.20449,0.12127 -0.30674,0.32814 -0.30674,0.62061 0,0.23303 0.0761,0.4185 0.22827,0.55642 0.15456,0.13553 0.36381,0.2033 0.62775,0.2033 0.36381,0 0.65509,-0.1284 0.87385,-0.38521 0.22114,-0.25918 0.33171,-0.60278 0.33171,-1.03079 l 0,-0.14623 -0.65271,0 m 1.30899,-0.27107 0,2.27914 -0.65628,0 0,-0.60634 c -0.14981,0.24254 -0.33647,0.42206 -0.55998,0.53858 -0.22352,0.11413 -0.49697,0.1712 -0.82035,0.1712 -0.40899,0 -0.73475,-0.11414 -0.97729,-0.34241 -0.24016,-0.23065 -0.36024,-0.53858 -0.36024,-0.92378 0,-0.44941 0.1498,-0.78825 0.44941,-1.01653 0.30198,-0.22827 0.75139,-0.3424 1.34823,-0.3424 l 0.92022,0 0,-0.0642 c 0,-0.30199 -0.0999,-0.53501 -0.29961,-0.69909 -0.19736,-0.16644 -0.47556,-0.24966 -0.83461,-0.24967 -0.22828,1e-5 -0.4506,0.0273 -0.66699,0.082 -0.21638,0.0547 -0.42444,0.13673 -0.62417,0.2461 l 0,-0.60634 c 0.24015,-0.0927 0.47318,-0.16169 0.69908,-0.20688 0.22589,-0.0476 0.44584,-0.0713 0.65984,-0.0713 0.57781,0 1.00939,0.14981 1.29473,0.44941 0.28534,0.29961 0.42801,0.75377 0.42801,1.3625"
         style="font-size:7.30468845px;font-variant:normal;font-weight:normal;writing-mode:lr-tb;fill:#eeeeee;fill-opacity:1;fill-rule:nonzero;stroke:none;font-family:Bitstream Vera Sans;-inkscape-font-specification:BitstreamVeraSans-Roman"
         id="path3377" /><path
         d="m 124.06134,-216.70708 0,0.54571 -0.62775,0 c -0.23541,1e-5 -0.39948,0.0476 -0.49221,0.14267 -0.0904,0.0951 -0.13554,0.26632 -0.13554,0.51361 l 0,0.35311 1.08073,0 0,0.51005 -1.08073,0 0,3.4847 -0.65984,0 0,-3.4847 -0.62775,0 0,-0.51005 0.62775,0 0,-0.2782 c 0,-0.44465 0.10343,-0.76804 0.3103,-0.97016 0.20687,-0.20449 0.53501,-0.30673 0.98442,-0.30674 l 0.62062,0"
         style="font-size:7.30468845px;font-variant:normal;font-weight:normal;writing-mode:lr-tb;fill:#eeeeee;fill-opacity:1;fill-rule:nonzero;stroke:none;font-family:Bitstream Vera Sans;-inkscape-font-specification:BitstreamVeraSans-Roman"
         id="path3379" /><path
         d="m 125.13493,-216.2862 0,1.13422 1.35179,0 0,0.51005 -1.35179,0 0,2.16858 c -1e-5,0.32576 0.044,0.53501 0.13197,0.62774 0.0903,0.0927 0.27226,0.13911 0.54571,0.13911 l 0.67411,0 0,0.54927 -0.67411,0 c -0.50648,0 -0.85602,-0.0939 -1.04863,-0.28177 -0.1926,-0.19023 -0.2889,-0.53501 -0.2889,-1.03435 l 0,-2.16858 -0.48151,0 0,-0.51005 0.48151,0 0,-1.13422 0.65985,0"
         style="font-size:7.30468845px;font-variant:normal;font-weight:normal;writing-mode:lr-tb;fill:#eeeeee;fill-opacity:1;fill-rule:nonzero;stroke:none;font-family:Bitstream Vera Sans;-inkscape-font-specification:BitstreamVeraSans-Roman"
         id="path3381" /></g></g></svg>